<svg xmlns="http://www.w3.org/2000/svg" viewBox="0 0 1200 700"><defs><linearGradient id="bg" x1="0" y1="0" x2="1" y2="1"><stop stop-color="#061a2d"/><stop offset="1" stop-color="#0f766e"/></linearGradient></defs><rect width="1200" height="700" fill="url(#bg)"/><circle cx="170" cy="130" r="170" fill="#22d3ee" opacity=".12"/><circle cx="1040" cy="570" r="220" fill="#34d399" opacity=".1"/><path d="M0 540 C220 410 340 590 520 470 S850 430 1200 250" fill="none" stroke="#2dd4bf" stroke-width="5" opacity=".4"/><rect x="150" y="90" width="900" height="520" rx="32" fill="#0f172a" stroke="#5eead4" stroke-width="4"/><rect x="190" y="130" width="820" height="440" rx="18" fill="#f8fafc"/><text x="230" y="185" font-family="Arial" font-size="27" font-weight="700" fill="#0f766e">Google Business Profile · Local SEO</text><rect x="230" y="225" width="340" height="270" rx="18" fill="#e0f2fe"/><circle cx="400" cy="350" r="78" fill="#ffffff" stroke="#0ea5e9" stroke-width="7"/><path d="M400 295 C365 295 340 322 340 355 C340 415 400 460 400 460 S460 415 460 355 C460 322 435 295 400 295Z" fill="#2563eb" opacity=".9"/><circle cx="400" cy="355" r="23" fill="#fff"/><rect x="610" y="225" width="350" height="80" rx="14" fill="#dcfce7"/><text x="635" y="258" font-family="Arial" font-size="19" fill="#166534">Local Visibility</text><text x="635" y="288" font-family="Arial" font-size="27" font-weight="700" fill="#0f172a">+200%</text><rect x="610" y="325" width="350" height="80" rx="14" fill="#fef3c7"/><text x="635" y="358" font-family="Arial" font-size="19" fill="#92400e">Locations Optimized</text><text x="635" y="388" font-family="Arial" font-size="27" font-weight="700" fill="#0f172a">50+</text><rect x="610" y="425" width="350" height="70" rx="14" fill="#e0e7ff"/><text x="635" y="468" font-family="Arial" font-size="19" fill="#3730a3">Map Pack · GBP · LocalBusiness Schema</text></svg>