<svg xmlns="http://www.w3.org/2000/svg" viewBox="0 0 1200 700"><defs><linearGradient id="bg" x1="0" y1="0" x2="1" y2="1"><stop stop-color="#0b1736"/><stop offset="1" stop-color="#5133d8"/></linearGradient><linearGradient id="screen" x1="0" y1="0" x2="1" y2="1"><stop stop-color="#ffffff"/><stop offset="1" stop-color="#dbeafe"/></linearGradient></defs><rect width="1200" height="700" fill="url(#bg)"/><circle cx="1020" cy="110" r="190" fill="#8b5cf6" opacity=".18"/><circle cx="180" cy="600" r="230" fill="#38bdf8" opacity=".12"/><rect x="170" y="110" width="860" height="480" rx="28" fill="#111827" stroke="#a78bfa" stroke-width="5"/><rect x="205" y="150" width="790" height="390" rx="12" fill="url(#screen)"/><rect x="245" y="190" width="710" height="52" rx="10" fill="#eef2ff"/><text x="270" y="224" font-family="Arial" font-size="25" font-weight="700" fill="#312e81">TripzyGo · Travel Growth Dashboard</text><rect x="245" y="275" width="420" height="180" rx="16" fill="#e0e7ff"/><path d="M275 410 C350 360 390 390 455 330 S575 345 635 300" fill="none" stroke="#7c3aed" stroke-width="10"/><circle cx="635" cy="300" r="12" fill="#7c3aed"/><rect x="700" y="275" width="255" height="80" rx="14" fill="#ede9fe"/><text x="725" y="310" font-family="Arial" font-size="20" fill="#6d28d9">Organic Traffic</text><text x="725" y="340" font-family="Arial" font-size="28" font-weight="700" fill="#111827">+120%</text><rect x="700" y="375" width="255" height="80" rx="14" fill="#dbeafe"/><text x="725" y="410" font-family="Arial" font-size="20" fill="#1d4ed8">Landing Pages</text><text x="725" y="440" font-family="Arial" font-size="28" font-weight="700" fill="#111827">500+</text><path d="M110 590 L1090 590" stroke="#c4b5fd" stroke-width="5" opacity=".5"/></svg>